<?xml version="1.0" encoding="utf-8"?>
<!-- Generator: Adobe Illustrator 16.0.0, SVG Export Plug-In . SVG Version: 6.00 Build 0)  -->
<!DOCTYPE svg PUBLIC "-//W3C//DTD SVG 1.1//EN" "http://www.w3.org/Graphics/SVG/1.1/DTD/svg11.dtd">
<svg version="1.1" id="Visible__x28_ANSI_x29_" xmlns="http://www.w3.org/2000/svg" xmlns:xlink="http://www.w3.org/1999/xlink"
	 x="0px" y="0px" width="720px" height="720px" viewBox="0 0 720 720" enable-background="new 0 0 720 720" xml:space="preserve">
<g id="LINE_9_">
	<g>
		
			<path fill="none" stroke="#000000" stroke-width="0.3543" stroke-linecap="round" stroke-linejoin="round" stroke-miterlimit="10" d="
			M521.98,413.986v89.979c0,9.938-8.059,17.996-17.998,17.996H216.018c-9.94,0-17.998-8.058-17.998-17.996V440.98H46.326
			c44.73,173.216,221.427,277.38,394.665,232.654c162.886-42.052,266.478-201.767,238.439-367.622H198.02v-89.978
			c0-9.939,8.058-17.996,17.998-17.996h287.965c9.939,0,17.998,8.057,17.998,17.996v62.984h151.693
			C628.943,105.803,452.247,1.64,279.01,46.364C116.123,88.416,12.532,248.132,40.57,413.986H521.98z"/>
	</g>
	<g>
		<path d="M521.98,413.986v89.979c0,9.938-8.059,17.996-17.998,17.996H216.018c-9.94,0-17.998-8.058-17.998-17.996V440.98H46.326
			c44.73,173.216,221.427,277.38,394.665,232.654c162.886-42.052,266.478-201.767,238.439-367.622H198.02v-89.978
			c0-9.939,8.058-17.996,17.998-17.996h287.965c9.939,0,17.998,8.057,17.998,17.996v62.984h151.693
			C628.943,105.803,452.247,1.64,279.01,46.364C116.123,88.416,12.532,248.132,40.57,413.986H521.98z"/>
	</g>
</g>
</svg>
